<svg width="24" height="24" viewBox="0 0 24 24" fill="none" xmlns="http://www.w3.org/2000/svg">
<path d="M12.0001 15C10.4088 15 8.88267 14.3679 7.75745 13.2426C6.63223 12.1174 6.00009 10.5913 6.00009 9C6.00009 7.4087 6.63223 5.88258 7.75745 4.75736C8.88267 3.63214 10.4088 3 12.0001 3C13.5914 3 15.1175 3.63214 16.2427 4.75736C17.368 5.88258 18.0001 7.4087 18.0001 9C18.0001 10.5913 17.368 12.1174 16.2427 13.2426C15.1175 14.3679 13.5914 15 12.0001 15ZM12.0001 15L15.4001 20.89L16.9981 17.657L20.5961 17.889L17.1961 12M6.8021 12L3.4021 17.89L7.0001 17.657L8.5981 20.889L11.9981 15" stroke="white" stroke-width="2" stroke-linecap="round" stroke-linejoin="round"/>
</svg>
