<svg width="25" height="24" viewBox="0 0 25 24" fill="none" xmlns="http://www.w3.org/2000/svg">
<path d="M12.5 15C10.9087 15 9.38255 14.3679 8.25733 13.2426C7.13211 12.1174 6.49997 10.5913 6.49997 9C6.49997 7.4087 7.13211 5.88258 8.25733 4.75736C9.38255 3.63214 10.9087 3 12.5 3C14.0913 3 15.6174 3.63214 16.7426 4.75736C17.8678 5.88258 18.5 7.4087 18.5 9C18.5 10.5913 17.8678 12.1174 16.7426 13.2426C15.6174 14.3679 14.0913 15 12.5 15ZM12.5 15L15.9 20.89L17.498 17.657L21.096 17.889L17.696 12M7.30198 12L3.90198 17.89L7.49998 17.657L9.09798 20.889L12.498 15" stroke="#436484" stroke-width="2" stroke-linecap="round" stroke-linejoin="round"/>
</svg>
