<svg width="35" height="32" viewBox="0 0 35 32" fill="none" xmlns="http://www.w3.org/2000/svg">
<path d="M9.99432 25.575C8.12273 25.575 6.3278 24.8638 5.00439 23.598C3.68098 22.3321 2.9375 20.6152 2.9375 18.825C2.9375 17.0348 3.68098 15.3179 5.00439 14.052C6.3278 12.7862 8.12273 12.075 9.99432 12.075C10.4363 10.1058 11.7295 8.37522 13.5892 7.26407C14.51 6.71388 15.5423 6.33232 16.627 6.14117C17.7117 5.95002 18.8276 5.95302 19.911 6.15C20.9944 6.34698 22.0241 6.73409 22.9413 7.28922C23.8584 7.84435 24.6451 8.55663 25.2565 9.38539C25.8678 10.2142 26.2917 11.1432 26.5041 12.1194C26.7165 13.0956 26.7132 14.0999 26.4943 15.075H27.9943C29.3867 15.075 30.7221 15.6281 31.7066 16.6127C32.6912 17.5973 33.2443 18.9326 33.2443 20.325C33.2443 21.7174 32.6912 23.0527 31.7066 24.0373C30.7221 25.0219 29.3867 25.575 27.9943 25.575H9.99432Z" stroke="white" stroke-width="1.5" stroke-linecap="round" stroke-linejoin="round"/>
</svg>
