<svg width="75" height="74" viewBox="0 0 75 74" fill="none" xmlns="http://www.w3.org/2000/svg">
<circle cx="37.25" cy="37" r="37" fill="#E55858"/>
<path d="M31.9167 49H42.5833M37.25 43.6667V49M37.25 43.6667C39.0181 43.6667 40.7138 42.9643 41.964 41.714C43.2143 40.4638 43.9167 38.7681 43.9167 37V26.3333H30.5833V37C30.5833 38.7681 31.2857 40.4638 32.536 41.714C33.7862 42.9643 35.4819 43.6667 37.25 43.6667ZM25.25 33C25.25 33.7072 25.531 34.3855 26.031 34.8856C26.5311 35.3857 27.2094 35.6667 27.9167 35.6667C28.6239 35.6667 29.3022 35.3857 29.8023 34.8856C30.3024 34.3855 30.5833 33.7072 30.5833 33C30.5833 32.2928 30.3024 31.6145 29.8023 31.1144C29.3022 30.6143 28.6239 30.3333 27.9167 30.3333C27.2094 30.3333 26.5311 30.6143 26.031 31.1144C25.531 31.6145 25.25 32.2928 25.25 33ZM43.9167 33C43.9167 33.7072 44.1976 34.3855 44.6977 34.8856C45.1978 35.3857 45.8761 35.6667 46.5833 35.6667C47.2906 35.6667 47.9689 35.3857 48.469 34.8856C48.969 34.3855 49.25 33.7072 49.25 33C49.25 32.2928 48.969 31.6145 48.469 31.1144C47.9689 30.6143 47.2906 30.3333 46.5833 30.3333C45.8761 30.3333 45.1978 30.6143 44.6977 31.1144C44.1976 31.6145 43.9167 32.2928 43.9167 33Z" stroke="white" stroke-width="2.66667" stroke-linecap="round" stroke-linejoin="round"/>
</svg>
