<svg width="14" height="18" viewBox="0 0 14 18" fill="none" xmlns="http://www.w3.org/2000/svg">
<path d="M12.6793 0.25H1.32065C1.00355 0.25 0.699427 0.377155 0.475198 0.603492C0.25097 0.829829 0.125 1.13681 0.125 1.4569V16.5431C0.125 16.8632 0.25097 17.1702 0.475198 17.3965C0.699427 17.6228 1.00355 17.75 1.32065 17.75H12.6793C12.9965 17.75 13.3006 17.6228 13.5248 17.3965C13.749 17.1702 13.875 16.8632 13.875 16.5431V1.4569C13.875 1.13681 13.749 0.829829 13.5248 0.603492C13.3006 0.377155 12.9965 0.25 12.6793 0.25ZM3.11413 14.431C2.93677 14.431 2.7634 14.3779 2.61593 14.2785C2.46846 14.179 2.35352 14.0377 2.28565 13.8723C2.21778 13.7069 2.20002 13.5249 2.23462 13.3493C2.26922 13.1737 2.35463 13.0124 2.48004 12.8858C2.60545 12.7592 2.76523 12.673 2.93918 12.6381C3.11314 12.6032 3.29344 12.6211 3.4573 12.6896C3.62116 12.7581 3.76121 12.8741 3.85974 13.023C3.95828 13.1718 4.01087 13.3468 4.01087 13.5259C4.01087 13.7659 3.91639 13.9962 3.74822 14.1659C3.58005 14.3357 3.35196 14.431 3.11413 14.431ZM3.11413 9.90517C2.93677 9.90517 2.7634 9.85208 2.61593 9.75262C2.46846 9.65316 2.35352 9.51179 2.28565 9.34639C2.21778 9.181 2.20002 8.999 2.23462 8.82341C2.26922 8.64782 2.35463 8.48654 2.48004 8.35995C2.60545 8.23336 2.76523 8.14715 2.93918 8.11222C3.11314 8.07729 3.29344 8.09522 3.4573 8.16373C3.62116 8.23224 3.76121 8.34826 3.85974 8.49711C3.95828 8.64597 4.01087 8.82097 4.01087 9C4.01087 9.24007 3.91639 9.4703 3.74822 9.64005C3.58005 9.80981 3.35196 9.90517 3.11413 9.90517ZM3.11413 5.37931C2.93677 5.37931 2.7634 5.32622 2.61593 5.22676C2.46846 5.1273 2.35352 4.98593 2.28565 4.82053C2.21778 4.65513 2.20002 4.47313 2.23462 4.29755C2.26922 4.12196 2.35463 3.96067 2.48004 3.83408C2.60545 3.70749 2.76523 3.62128 2.93918 3.58636C3.11314 3.55143 3.29344 3.56936 3.4573 3.63787C3.62116 3.70638 3.76121 3.8224 3.85974 3.97125C3.95828 4.12011 4.01087 4.29511 4.01087 4.47414C4.01087 4.7142 3.91639 4.94444 3.74822 5.11419C3.58005 5.28394 3.35196 5.37931 3.11413 5.37931ZM11.1848 14.1293H5.80435C5.64579 14.1293 5.49373 14.0657 5.38162 13.9526C5.26951 13.8394 5.20652 13.6859 5.20652 13.5259C5.20652 13.3658 5.26951 13.2123 5.38162 13.0992C5.49373 12.986 5.64579 12.9224 5.80435 12.9224H11.1848C11.3433 12.9224 11.4954 12.986 11.6075 13.0992C11.7196 13.2123 11.7826 13.3658 11.7826 13.5259C11.7826 13.6859 11.7196 13.8394 11.6075 13.9526C11.4954 14.0657 11.3433 14.1293 11.1848 14.1293ZM11.1848 9.60345H5.80435C5.64579 9.60345 5.49373 9.53987 5.38162 9.4267C5.26951 9.31353 5.20652 9.16004 5.20652 9C5.20652 8.83996 5.26951 8.68647 5.38162 8.5733C5.49373 8.46013 5.64579 8.39655 5.80435 8.39655H11.1848C11.3433 8.39655 11.4954 8.46013 11.6075 8.5733C11.7196 8.68647 11.7826 8.83996 11.7826 9C11.7826 9.16004 11.7196 9.31353 11.6075 9.4267C11.4954 9.53987 11.3433 9.60345 11.1848 9.60345ZM11.1848 5.07759H5.80435C5.64579 5.07759 5.49373 5.01401 5.38162 4.90084C5.26951 4.78767 5.20652 4.63418 5.20652 4.47414C5.20652 4.31409 5.26951 4.1606 5.38162 4.04744C5.49373 3.93427 5.64579 3.87069 5.80435 3.87069H11.1848C11.3433 3.87069 11.4954 3.93427 11.6075 4.04744C11.7196 4.1606 11.7826 4.31409 11.7826 4.47414C11.7826 4.63418 11.7196 4.78767 11.6075 4.90084C11.4954 5.01401 11.3433 5.07759 11.1848 5.07759Z" fill="#3C5163"/>
</svg>
