<svg width="32" height="32" viewBox="0 0 32 32" fill="none" xmlns="http://www.w3.org/2000/svg">
<rect width="32" height="32" rx="3" fill="#B4B4B4" fill-opacity="0.1"/>
<g clip-path="url(#clip0_738_74590)">
<path d="M9.55029 6.00415C12.5512 6.00415 15.5522 6.00415 18.5531 6.00415C18.5671 6.02335 18.5764 6.04514 18.5801 6.069C18.621 6.32686 18.6065 6.5868 18.6076 6.84622C18.6091 7.53419 18.6044 8.22268 18.6091 8.91066C18.6138 9.58566 18.9931 10.0028 19.6598 10.0884C19.8408 10.1118 20.0214 10.1195 20.203 10.1195C21.2095 10.1195 22.2155 10.1175 23.2221 10.1221C23.3009 10.1227 23.3751 10.0952 23.4529 10.1009C23.5396 10.1263 23.5759 10.1891 23.5852 10.2742C23.5946 10.3582 23.5961 10.4428 23.5961 10.5273C23.5967 15.2425 23.5967 19.9582 23.5967 24.6733C23.5967 24.9961 23.5131 25.2871 23.3191 25.5471C23.0851 25.861 22.7629 25.9767 22.3857 25.9772C22.34 25.9772 22.2949 25.9772 22.2493 25.9772C18.0924 25.9772 13.9355 25.9772 9.77858 25.9772C9.68778 25.9772 9.59647 25.9637 9.50723 25.9652C8.89085 25.9756 8.4763 25.3286 8.44725 24.8368C8.44102 24.7263 8.44258 24.6158 8.44258 24.5058C8.44258 18.8225 8.44258 13.1397 8.4431 7.45637C8.4431 7.30746 8.4348 7.15752 8.46178 7.00913C8.56969 6.42181 8.88774 6.12815 9.55029 6.00415Z" fill="#B4B4B4"/>
<path d="M18.5549 6.04102C19.5381 6.86285 20.5218 7.68468 21.5039 8.50755C22.0897 8.99837 22.6739 9.49074 23.2576 9.98363C23.3157 10.0329 23.3681 10.089 23.4231 10.1424C23.3432 10.2124 23.2456 10.213 23.1471 10.213C22.0757 10.2124 21.0043 10.2181 19.9334 10.2104C19.4582 10.2067 19.0192 10.1019 18.7271 9.67026C18.5912 9.46947 18.517 9.25156 18.5154 9.01393C18.5108 8.09196 18.5134 7.17 18.5139 6.24803C18.5139 6.17591 18.5092 6.10328 18.5549 6.04102Z" fill="#9A9B9F"/>
<path d="M15.2609 17.4397C15.2609 16.9668 15.3183 16.5902 15.4331 16.3098C15.548 16.0294 15.7574 15.7541 16.0614 15.4839C16.3688 15.2103 16.5732 14.9891 16.6745 14.8202C16.7758 14.6479 16.8265 14.4672 16.8265 14.278C16.8265 13.7072 16.563 13.4218 16.0361 13.4218C15.7861 13.4218 15.5851 13.4995 15.4331 13.6548C15.2845 13.8068 15.2068 14.0179 15.2001 14.2882H13.7307C13.7375 13.643 13.9452 13.138 14.3539 12.7732C14.766 12.4084 15.3267 12.226 16.0361 12.226C16.7522 12.226 17.3078 12.4 17.703 12.7479C18.0982 13.0924 18.2958 13.5805 18.2958 14.2122C18.2958 14.4993 18.2317 14.7712 18.1033 15.0279C17.9749 15.2813 17.7503 15.5633 17.4294 15.8741L17.019 16.2642C16.7623 16.5108 16.6154 16.7996 16.5782 17.1306L16.558 17.4397H15.2609ZM15.1139 18.9952C15.1139 18.7689 15.1899 18.5831 15.3419 18.4378C15.4973 18.2892 15.6949 18.2149 15.9347 18.2149C16.1746 18.2149 16.3705 18.2892 16.5225 18.4378C16.6779 18.5831 16.7556 18.7689 16.7556 18.9952C16.7556 19.2181 16.6796 19.4022 16.5276 19.5474C16.3789 19.6927 16.1813 19.7653 15.9347 19.7653C15.6882 19.7653 15.4889 19.6927 15.3369 19.5474C15.1882 19.4022 15.1139 19.2181 15.1139 18.9952Z" fill="white"/>
</g>
<defs>
<clipPath id="clip0_738_74590">
<rect width="20" height="20" fill="white" transform="translate(6 6)"/>
</clipPath>
</defs>
</svg>
