<svg width="25" height="24" viewBox="0 0 25 24" fill="none" xmlns="http://www.w3.org/2000/svg">
<path d="M12.5 8V12L14.5 14M3.5498 11.0001C3.7739 8.80013 4.80007 6.75968 6.43254 5.26803C8.06501 3.77639 10.1895 2.93795 12.4007 2.9127C14.6119 2.88744 16.755 3.67713 18.4211 5.1311C20.0872 6.58507 21.1597 8.60155 21.434 10.7958C21.7083 12.99 21.1651 15.2085 19.9082 17.0278C18.6512 18.8472 16.7684 20.1401 14.6191 20.6599C12.4697 21.1797 10.2042 20.89 8.2548 19.8461C6.30539 18.8022 4.80853 17.0772 4.0498 15.0001M3.5498 20.0001V15.0001H8.5498" stroke="white" stroke-width="2" stroke-linecap="round" stroke-linejoin="round"/>
</svg>
