<svg width="20" height="20" viewBox="0 0 20 20" fill="none" xmlns="http://www.w3.org/2000/svg">
<path d="M4.5833 4.16675H15.4166C15.5366 4.20884 15.6454 4.27784 15.7347 4.36847C15.8239 4.4591 15.8912 4.56894 15.9314 4.6896C15.9716 4.81025 15.9837 4.93851 15.9667 5.06455C15.9497 5.19059 15.9041 5.31107 15.8333 5.41675L11.6666 10.0001V15.8334L8.3333 13.3334V10.0001L4.16663 5.41675C4.09588 5.31107 4.05025 5.19059 4.03324 5.06455C4.01623 4.93851 4.0283 4.81025 4.06852 4.6896C4.10874 4.56894 4.17604 4.4591 4.26527 4.36847C4.3545 4.27784 4.46329 4.20884 4.5833 4.16675Z" stroke="#4693D5" stroke-width="1.5" stroke-linecap="round" stroke-linejoin="round"/>
</svg>
