<svg width="25" height="24" viewBox="0 0 25 24" fill="none" xmlns="http://www.w3.org/2000/svg">
<path d="M12.5 5V7M12.5 10V11M12.5 14V15M12.5 18V19M7.5 3V5M17.5 3V5M6.5 9H8C8.39782 9 8.77936 9.15804 9.06066 9.43934C9.34196 9.72064 9.5 10.1022 9.5 10.5C9.5 10.8978 9.34196 11.2794 9.06066 11.5607C8.77936 11.842 8.39782 12 8 12M8 12H7.5M8 12C8.39782 12 8.77936 12.158 9.06066 12.4393C9.34196 12.7206 9.5 13.1022 9.5 13.5C9.5 13.8978 9.34196 14.2794 9.06066 14.5607C8.77936 14.842 8.39782 15 8 15H6.5M3.5 7C3.5 6.46957 3.71071 5.96086 4.08579 5.58579C4.46086 5.21071 4.96957 5 5.5 5H19.5C20.0304 5 20.5391 5.21071 20.9142 5.58579C21.2893 5.96086 21.5 6.46957 21.5 7V17C21.5 17.5304 21.2893 18.0391 20.9142 18.4142C20.5391 18.7893 20.0304 19 19.5 19H5.5C4.96957 19 4.46086 18.7893 4.08579 18.4142C3.71071 18.0391 3.5 17.5304 3.5 17V7ZM15.5 10.5V13.5C15.5 13.8978 15.658 14.2794 15.9393 14.5607C16.2206 14.842 16.6022 15 17 15C17.3978 15 17.7794 14.842 18.0607 14.5607C18.342 14.2794 18.5 13.8978 18.5 13.5V10.5C18.5 10.1022 18.342 9.72064 18.0607 9.43934C17.7794 9.15804 17.3978 9 17 9C16.6022 9 16.2206 9.15804 15.9393 9.43934C15.658 9.72064 15.5 10.1022 15.5 10.5Z" stroke="white" stroke-width="2" stroke-linecap="round" stroke-linejoin="round"/>
</svg>
