<svg width="75" height="74" viewBox="0 0 75 74" fill="none" xmlns="http://www.w3.org/2000/svg">
<circle cx="37.75" cy="37" r="37" fill="#6529E7"/>
<path d="M25.75 49V46.3333C25.75 44.9188 26.3119 43.5623 27.3121 42.5621C28.3123 41.5619 29.6688 41 31.0833 41H36.4167C37.8312 41 39.1877 41.5619 40.1879 42.5621C41.1881 43.5623 41.75 44.9188 41.75 46.3333V49M43.0833 25.1732C44.2306 25.4669 45.2474 26.1341 45.9735 27.0696C46.6997 28.0051 47.0938 29.1556 47.0938 30.3398C47.0938 31.5241 46.6997 32.6746 45.9735 33.6101C45.2474 34.5456 44.2306 35.2128 43.0833 35.5065M49.75 48.9999V46.3332C49.7432 45.1561 49.3472 44.0143 48.6237 43.0857C47.9002 42.1572 46.8898 41.4941 45.75 41.1999M28.4167 30.3333C28.4167 31.7478 28.9786 33.1044 29.9788 34.1046C30.979 35.1048 32.3355 35.6667 33.75 35.6667C35.1645 35.6667 36.521 35.1048 37.5212 34.1046C38.5214 33.1044 39.0833 31.7478 39.0833 30.3333C39.0833 28.9188 38.5214 27.5623 37.5212 26.5621C36.521 25.5619 35.1645 25 33.75 25C32.3355 25 30.979 25.5619 29.9788 26.5621C28.9786 27.5623 28.4167 28.9188 28.4167 30.3333Z" stroke="white" stroke-width="2.66667" stroke-linecap="round" stroke-linejoin="round"/>
</svg>
