<svg width="20" height="20" viewBox="0 0 20 20" fill="none" xmlns="http://www.w3.org/2000/svg">
<path d="M10.495 1.02002C10.5636 2.28232 10.3655 3.5449 9.91359 4.72553C9.46168 5.90616 8.76613 6.97834 7.87223 7.87223C6.97834 8.76613 5.90616 9.46168 4.72553 9.91359C3.5449 10.3655 2.28232 10.5636 1.02002 10.495M18.98 9.50495C17.7177 9.43637 16.4551 9.63449 15.2744 10.0864C14.0938 10.5383 13.0216 11.2338 12.1277 12.1277C11.2338 13.0216 10.5383 14.0938 10.0864 15.2744C9.63449 16.4551 9.43637 17.7177 9.50495 18.98M7 7L9 9M11 11L13 13M9 5L11 6M5 9L6 11M14 9L15 11M9 14L11 15M3.63606 16.3641C4.47179 17.1998 5.46395 17.8627 6.55588 18.315C7.64782 18.7673 8.81815 19.0001 10.0001 19.0001C11.182 19.0001 12.3523 18.7673 13.4442 18.315C14.5362 17.8627 15.5283 17.1998 16.3641 16.3641C17.1998 15.5283 17.8627 14.5362 18.315 13.4442C18.7673 12.3523 19.0001 11.182 19.0001 10.0001C19.0001 8.81815 18.7673 7.64782 18.315 6.55588C17.8627 5.46395 17.1998 4.47179 16.3641 3.63606C14.6762 1.94822 12.387 1 10.0001 1C7.61309 1 5.32389 1.94822 3.63606 3.63606C1.94822 5.32389 1 7.61309 1 10.0001C1 12.387 1.94822 14.6762 3.63606 16.3641Z" stroke="white" stroke-width="2" stroke-linecap="round" stroke-linejoin="round"/>
</svg>
